HIERARCHY
ROOT Hips
{
	OFFSET -14.64140 90.27770 -84.91600
	CHANNELS 6 Xposition Yposition Zposition Zrotation Xrotation Yrotation
	JOINT Spine
	{
		OFFSET 0.00000 13.20850 -1.60436
		CHANNELS 3 Zrotation Xrotation Yrotation
		JOINT Spine1
		{
			OFFSET 0.00000 8.61716 0.00000
			CHANNELS 3 Zrotation Xrotation Yrotation
			JOINT Spine2
			{
				OFFSET 0.00000 8.61717 0.00000
				CHANNELS 3 Zrotation Xrotation Yrotation
				JOINT Spine3
				{
					OFFSET 0.00000 8.61717 0.00000
					CHANNELS 3 Zrotation Xrotation Yrotation
					JOINT Neck
					{
						OFFSET 0.00000 11.07920 1.10792
						CHANNELS 3 Zrotation Xrotation Yrotation
						JOINT Neck1
						{
							OFFSET 0.00000 7.08032 0.00000
							CHANNELS 3 Zrotation Xrotation Yrotation
							JOINT Head
							{
								OFFSET 0.00000 7.08031 0.00000
								CHANNELS 3 Zrotation Xrotation Yrotation
								End site
								{
									OFFSET 0.00000 0.00000 0.00000
								}
							}
						}
					}
					JOINT RightShoulder
					{
						OFFSET -0.01000 7.91373 5.19711
						CHANNELS 3 Zrotation Xrotation Yrotation
						JOINT RightArm
						{
							OFFSET -18.41580 0.00000 0.00000
							CHANNELS 3 Zrotation Xrotation Yrotation
							JOINT RightForeArm
							{
								OFFSET -29.11090 0.00000 0.00000
								CHANNELS 3 Zrotation Xrotation Yrotation
								JOINT RightHand
								{
									OFFSET -24.65040 0.00000 0.00000
									CHANNELS 3 Zrotation Xrotation Yrotation
									JOINT RightHandThumb1
									{
										OFFSET -5.35114 -0.85590 3.97906
										CHANNELS 3 Zrotation Xrotation Yrotation
										JOINT RightHandThumb2
										{
											OFFSET -4.52789 0.00000 0.00000
											CHANNELS 3 Zrotation Xrotation Yrotation
											JOINT RightHandThumb3
											{
												OFFSET -2.46976 0.00000 0.00000
												CHANNELS 3 Zrotation Xrotation Yrotation
												End site
												{
													OFFSET 0.00000 0.00000 0.00000
												}
											}
										}
									}
									JOINT RightHandIndex1
									{
										OFFSET -14.26970 0.00000 2.88139
										CHANNELS 3 Zrotation Xrotation Yrotation
										JOINT RightHandIndex2
										{
											OFFSET -5.48836 0.00000 0.00000
											CHANNELS 3 Zrotation Xrotation Yrotation
											JOINT RightHandIndex3
											{
												OFFSET -3.01859 0.00000 0.00000
												CHANNELS 3 Zrotation Xrotation Yrotation
												End site
												{
													OFFSET 0.00000 0.00000 0.00000
												}
											}
										}
									}
									JOINT RightHandMiddle1
									{
										OFFSET -14.26970 0.00000 -0.09147
										CHANNELS 3 Zrotation Xrotation Yrotation
										JOINT RightHandMiddle2
										{
											OFFSET -6.17441 0.00000 0.00000
											CHANNELS 3 Zrotation Xrotation Yrotation
											JOINT RightHandMiddle3
											{
												OFFSET -3.56743 0.00000 0.00000
												CHANNELS 3 Zrotation Xrotation Yrotation
												End site
												{
													OFFSET 0.00000 0.00000 0.00000
												}
											}
										}
									}
									JOINT RightHandRing1
									{
										OFFSET -12.69180 0.00000 -3.06433
										CHANNELS 3 Zrotation Xrotation Yrotation
										JOINT RightHandRing2
										{
											OFFSET -5.62556 0.00000 0.00000
											CHANNELS 3 Zrotation Xrotation Yrotation
											JOINT RightHandRing3
											{
												OFFSET -3.56744 0.00000 0.00000
												CHANNELS 3 Zrotation Xrotation Yrotation
												End site
												{
													OFFSET 0.00000 0.00000 0.00000
												}
											}
										}
									}
									JOINT RightHandPinky1
									{
										OFFSET -11.11390 0.00000 -6.03719
										CHANNELS 3 Zrotation Xrotation Yrotation
										JOINT RightHandPinky2
										{
											OFFSET -4.52789 0.00000 0.00000
											CHANNELS 3 Zrotation Xrotation Yrotation
											JOINT RightHandPinky3
											{
												OFFSET -2.46976 0.00000 0.00000
												CHANNELS 3 Zrotation Xrotation Yrotation
												End site
												{
													OFFSET 0.00000 0.00000 0.00000
												}
											}
										}
									}
								}
							}
						}
					}
					JOINT LeftShoulder
					{
						OFFSET 0.01000 7.91373 5.19711
						CHANNELS 3 Zrotation Xrotation Yrotation
						JOINT LeftArm
						{
							OFFSET 18.41580 0.00000 0.00000
							CHANNELS 3 Zrotation Xrotation Yrotation
							JOINT LeftForeArm
							{
								OFFSET 29.11090 0.00000 0.00000
								CHANNELS 3 Zrotation Xrotation Yrotation
								JOINT LeftHand
								{
									OFFSET 24.65040 0.00000 0.00000
									CHANNELS 3 Zrotation Xrotation Yrotation
									JOINT LeftHandThumb1
									{
										OFFSET 5.35114 -0.85590 3.97906
										CHANNELS 3 Zrotation Xrotation Yrotation
										JOINT LeftHandThumb2
										{
											OFFSET 4.52789 0.00000 0.00000
											CHANNELS 3 Zrotation Xrotation Yrotation
											JOINT LeftHandThumb3
											{
												OFFSET 2.46977 0.00000 0.00000
												CHANNELS 3 Zrotation Xrotation Yrotation
												End site
												{
													OFFSET 0.00000 0.00000 0.00000
												}
											}
										}
									}
									JOINT LeftHandIndex1
									{
										OFFSET 14.26970 0.00000 2.88139
										CHANNELS 3 Zrotation Xrotation Yrotation
										JOINT LeftHandIndex2
										{
											OFFSET 5.48836 0.00000 0.00000
											CHANNELS 3 Zrotation Xrotation Yrotation
											JOINT LeftHandIndex3
											{
												OFFSET 3.01859 0.00000 0.00000
												CHANNELS 3 Zrotation Xrotation Yrotation
												End site
												{
													OFFSET 0.00000 0.00000 0.00000
												}
											}
										}
									}
									JOINT LeftHandMiddle1
									{
										OFFSET 14.26970 0.00000 -0.09147
										CHANNELS 3 Zrotation Xrotation Yrotation
										JOINT LeftHandMiddle2
										{
											OFFSET 6.17440 0.00000 0.00000
											CHANNELS 3 Zrotation Xrotation Yrotation
											JOINT LeftHandMiddle3
											{
												OFFSET 3.56744 0.00000 0.00000
												CHANNELS 3 Zrotation Xrotation Yrotation
												End site
												{
													OFFSET 0.00000 0.00000 0.00000
												}
											}
										}
									}
									JOINT LeftHandRing1
									{
										OFFSET 12.69180 0.00000 -3.06433
										CHANNELS 3 Zrotation Xrotation Yrotation
										JOINT LeftHandRing2
										{
											OFFSET 5.62556 0.00000 0.00000
											CHANNELS 3 Zrotation Xrotation Yrotation
											JOINT LeftHandRing3
											{
												OFFSET 3.56744 0.00000 0.00000
												CHANNELS 3 Zrotation Xrotation Yrotation
												End site
												{
													OFFSET 0.00000 0.00000 0.00000
												}
											}
										}
									}
									JOINT LeftHandPinky1
									{
										OFFSET 11.11390 0.00000 -6.03719
										CHANNELS 3 Zrotation Xrotation Yrotation
										JOINT LeftHandPinky2
										{
											OFFSET 4.52789 0.00000 0.00000
											CHANNELS 3 Zrotation Xrotation Yrotation
											JOINT LeftHandPinky3
											{
												OFFSET 2.46976 0.00000 0.00000
												CHANNELS 3 Zrotation Xrotation Yrotation
												End site
												{
													OFFSET 0.00000 0.00000 0.00000
												}
											}
										}
									}
								}
							}
						}
					}
					JOINT pCube4
					{
						OFFSET 0.00000 10.91090 1.10792
						CHANNELS 3 Zrotation Xrotation Yrotation
						End site
						{
							OFFSET 0.00000 0.00000 0.00000
						}
					}
				}
			}
		}
	}
	JOINT RightUpLeg
	{
		OFFSET -9.98441 0.00000 0.00000
		CHANNELS 3 Zrotation Xrotation Yrotation
		JOINT RightLeg
		{
			OFFSET 0.00000 -42.11790 0.00000
			CHANNELS 3 Zrotation Xrotation Yrotation
			JOINT RightFoot
			{
				OFFSET 0.00000 -45.00020 -0.00001
				CHANNELS 3 Zrotation Xrotation Yrotation
				JOINT RightForeFoot
				{
					OFFSET 0.00000 -3.74820 0.00000
					CHANNELS 3 Zrotation Xrotation Yrotation
					JOINT RightToeBase
					{
						OFFSET 0.00000 0.06325 14.43120
						CHANNELS 3 Zrotation Xrotation Yrotation
						End site
						{
							OFFSET 0.00000 0.00000 0.00000
						}
					}
				}
			}
		}
	}
	JOINT LeftUpLeg
	{
		OFFSET 9.98441 0.00000 0.00000
		CHANNELS 3 Zrotation Xrotation Yrotation
		JOINT LeftLeg
		{
			OFFSET 0.00000 -42.11800 0.00000
			CHANNELS 3 Zrotation Xrotation Yrotation
			JOINT LeftFoot
			{
				OFFSET 0.00000 -45.00070 0.00000
				CHANNELS 3 Zrotation Xrotation Yrotation
				JOINT LeftForeFoot
				{
					OFFSET 0.00000 -3.74824 0.00000
					CHANNELS 3 Zrotation Xrotation Yrotation
					JOINT LeftToeBase
					{
						OFFSET 0.00000 0.06325 14.43110
						CHANNELS 3 Zrotation Xrotation Yrotation
						End site
						{
							OFFSET 0.00000 0.00000 0.00000
						}
					}
				}
			}
		}
	}
}
MOTION
Frames: 4
Frame Time: 0.050000
0.021283919091902668 -0.02555651843944929 -0.012545530260570878 -0.013341077141393431 0.044641757634565904 -0.0458310061762469 3.457380226917792 3.480403681959025 -1.930580585468809 -0.8682551313346528 3.491773248053856 0.37852085245770667 -0.65794025890215 -0.7878866668706358 -0.2642482367799015 -0.14934190500545863 0.0050925666090398045 -0.5019582286152388 -0.015253220867848818 11.849555264090943 -0.8215311985477037 0.33169703511075427 -0.43772435895370937 -1.6290781395191383 0.6458484970327784 -16.387862317556362 -0.15805287169243976 -7.684902664388692 2.991896506142713 -16.058862532360976 77.62202267344531 5.563634022570421 9.811957806436103 6.012553138887089 1.5097929519840703 96.83478605222487 3.4815621898924913 0.097269781248982 -0.05659336445603054 4.513195446140296 -0.13518189291625327 -1.5807627946712097 0.03312955158903504 0.00028766320145102504 -56.260914251168906 -0.0016538206181417614 0.035472532795743625 -56.23349218607426 -38.81864543051364 0.03993238179495291 0.029320478039201583 0.023792318732411867 0.010320029650909546 0.03766776691089981 -0.04367767915274384 0.035194930557976706 0.015986505541287575 -36.69826043865705 0.012402493553170822 0.04368027385728702 0.023890586061314098 0.031497628397212936 -0.03792165094132521 -0.004938628931311819 -0.0043146731491748155 0.019787233566010767 -19.762441440252907 0.04593826658904149 -0.03936143762707065 -0.020353105874943968 0.005101053076145975 -0.037884280264146725 -0.010592726754540488 0.03777872144042916 0.027112900046550106 24.07900142451578 -0.005313397173979105 -0.04441452011136212 28.868534715880816 0.0038488254824980647 -0.026332441156187214 28.863089862609318 -0.03993094366206261 -0.02475420877365424 8.70718744344986 2.2386886302732107 12.953756238774176 -72.46473883576319 27.320486036352044 -18.11446861456666 -17.94376504848899 1.4935029119436873 -90.81386151547963 -10.429329591911015 -7.035337020527086 3.44943343861593 -0.5139815791875959 0.07732598847261601 -8.165063298351889 0.023851794920121263 0.04734886823416109 44.545795183890185 0.008990171001125416 -0.033214602125750885 44.58962529619026 12.475819985052826 -0.039572820123745474 -0.030532366232284294 0.006049120040465316 -0.029200685523954297 0.015484191843932104 0.009148827767481365 0.025698468997214244 0.009480676136892886 11.100929850944855 0.0008472918660974865 -0.03380950742573883 -0.04881209939285709 -0.0462023858878639 -0.027902237338317686 -0.003068965824048645 -0.029271194399203483 -0.003576524503600232 4.816198514810154 0.00890282837446329 0.0059391665772580045 -0.004802343052359121 0.019215079947352373 0.02114833429155205 -0.001873022572234986 -0.0038679289662672356 0.02861078664410614 -5.573485131500043 -0.016139103736238555 0.013076303333956147 -6.673444705390412 0.022341628614808914 0.03166928673183094 -6.722865220432236 -0.037132465431651364 0.02014549776824949 0.03528833654938642 -0.027764026315448144 -0.009335894415647188 8.014177351356404 3.4628602114450913 -19.183422322687505 0.03146643438227162 10.431129211527418 -0.010449140747602 -5.606335898271673 -15.640361023715192 3.225426232926028 0.0057875807341522525 0.009207754188028175 -0.020287195461372483 0.004683703086679881 4.733507302378631 0.02267670633941507 12.480765259061437 -8.238888851992646 6.903273140009129 -0.029602091643570368 46.37791999754528 -0.04378070320006515 -4.342664264866516 -14.731488168074955 -3.795281400227911 -0.028099033766034964 -0.01456716196852843 -0.024420951794542605 -0.02387853983384147 -10.732187326044867 0.04500833205494639 
-0.013143499457995167 0.0138544295832244 -0.011873932477772858 0.0032661861065969976 0.03931011360155682 -0.04612704109701018 3.2374314416552337 3.6142224638811227 -1.8557988747839445 -0.8572136712702338 3.460576175318878 0.38035869043130993 -0.6287067370191576 -0.7986848495216847 -0.3429710969408348 -0.13878247453112608 0.020756919567271857 -0.48597375920511027 -0.09459759297002668 11.63467498316411 -0.7235077190544389 0.27972203105879434 -0.47118238249114625 -1.401086383784613 0.635241235485521 -16.446165718623856 -0.1441324048562003 -7.227208465360754 2.9170336668986123 -15.989775073449428 77.2911423446561 5.52960845278755 8.380709241230724 8.043776555062408 2.463536749315993 96.0244861228964 4.030380563683977 -0.052840423965738945 -0.4176788811323857 4.562711982024138 -0.1433436745819707 -1.572417712996634 0.026730098336725138 -0.04011925736744908 -56.23177045483559 -0.04884035551712893 0.0497240538608594 -56.2162639432408 -38.797687732536716 0.016287721257943477 -0.03470218305373052 -0.01512453773773036 -0.042163894674973036 0.017029379832737855 0.0031635696191922164 0.02362264026182133 0.021482325777237347 -36.71393061755305 0.013833838033081814 -0.016377809316999753 -0.022758981728206215 0.001256775732096509 0.010743530605057635 0.031977972003945115 0.007938936633158068 0.04386431267860969 -19.781211574465306 -0.005880167654169837 0.030441820240131045 -0.020171456291167913 0.03917520469556071 -0.020805130412403203 0.030182336044983517 0.024819184077986476 0.0004717566722977015 24.092023206371724 -0.04945124182090677 0.005898210961915035 28.873412559276225 -0.0013801111102017378 0.015500691089674971 28.878215535612238 -0.0021219909535280016 0.007356626490303949 8.38751310158979 2.1244071216308287 12.942406159058812 -72.23008764537306 27.048820861672326 -17.32791477473811 -22.524197893636043 3.436539955260904 -90.70288441241046 -11.912082334867954 -8.01846827849465 4.325823304394436 -0.4362952595530199 0.041153963484394124 -8.132696652271616 0.03148410316998543 -0.0020149658945123414 44.58359139944443 -0.005748443668953005 -0.026318400272713975 44.53838350606136 12.430916151924329 -0.00650858313546823 -0.020095510039305018 -0.00844646634795451 0.014609187589334658 -0.0033103152263435106 -0.040261079615746355 -0.04823092264776757 -0.030402331808887705 11.081480233526868 -0.028493944228242835 -0.037490396902836634 0.0394828874867942 -0.035556922426649894 -0.013022846500626557 -0.0023995948064192744 0.0018432470097971174 -0.03199350397115417 4.742098374330307 -0.03591035338950248 0.018120617151974987 -0.032996548066323066 -0.009864621030360732 -0.02575828484620053 0.01795622996355617 -0.020303035130692974 -0.006503738064124998 -5.634982110628618 0.010166286433381857 -0.02021627004232904 -6.680562049389041 0.010184009990343735 -0.015241883044347178 -6.716716411070395 0.03670474113154727 0.026093249590121402 0.03860015790937335 -0.04808739195773418 -0.005885474139189359 8.091146389255325 3.5412151381625856 -19.219398745867565 -0.04969998105563023 10.407071370416032 -0.019418399131506264 -5.634070416045197 -15.614389462584207 3.1685252070543672 0.033612077834334585 0.03316068963036715 0.03844299030843846 0.006555422191144807 4.686132188684664 -0.018136164612653265 12.44167507831159 -8.279254070965587 6.9063882149791835 0.018397657471203054 46.417248055098376 0.04489276173939332 -4.296012551475279 -14.741623757748341 -3.8668439614617505 0.01853956706199521 -0.0002636466188104439 -0.04222263753268923 -0.005646298810310083 -10.699084082599498 -0.04852821309313404 
-0.037450480043716254 -0.027312517801401228 0.045686865403144046 0.017761741930478716 -0.0004961743489480087 -0.007499195710691401 3.024746395544542 3.7858136899633297 -1.8615847732178779 -0.8047668156168685 3.506119241047477 0.4042827920018303 -0.6467997052776734 -0.7580115338307841 -0.30542334459622567 -0.1892124153725452 -0.02322821187092767 -0.5477710616150478 -0.15886907086782295 11.486018158119345 -0.6718199606563222 0.22569774476387675 -0.49904587165155606 -1.3552394595808914 0.5419936422683912 -16.489248781920175 -0.11256150962946283 -6.823649018839211 2.774227841844312 -15.934382930878243 77.26966393027926 5.564600156437445 6.517260388943231 10.307588310912644 3.67609709725566 93.28596515881605 4.975315030578835 -0.11271000843064799 -1.0063525676615306 4.535786068080301 -0.10655163729723464 -1.5733899787193852 -0.0012478143049623348 -0.019892720914496637 -56.230567926802955 -0.04085097697787475 -0.011247445324307229 -56.255185185649054 -38.76587969342672 -0.0056470826484226536 0.015208993261529457 -0.017244998316170334 -0.0014130622394691497 -0.004999094683635055 -0.00028354991343266476 -0.0499740508255772 0.01828115096773365 -36.716397376169866 0.041572193136868635 -0.009284978040940113 0.044406209442417265 0.036072906418162805 -0.02941697301841079 0.027647409008617063 -0.018328928358191814 0.04416289903929788 -19.771790614547264 -0.02896172006073995 -0.012482603892269425 0.018927103788521527 0.009921043440250661 0.042501907811216995 0.04601431487546557 -0.03158883477200842 -0.043774369434313745 24.048266543974833 0.007828509015968191 0.020445326951436447 28.87473194977012 -0.00031379599865410235 0.02307239637206382 28.908200587418158 -0.04891215364642497 0.04481363797634194 8.100149245165962 2.1136807450841584 12.956849685594108 -72.22432050231156 26.63161539975362 -16.042764072645213 -27.096023443302183 5.175203329998453 -89.41121057808645 -13.036712335333675 -8.457614752509873 4.8745974948914546 -0.4660898559305495 0.07495910580621441 -8.154230719752258 0.0265590281545451 -0.04586847231930346 44.564779176759075 0.023535104300062663 0.023810765615055525 44.554624840003655 12.498642742296223 -0.005581562103021793 -0.012384221271385762 -0.0001731740594726616 0.004195859247892348 -0.021940999415217637 0.040193826204457404 0.028448470188600437 -0.04796410531729411 11.137901998412246 -0.026312637268919935 0.02802322344875838 0.0005326753551506456 0.01823279592607154 0.034622436043081246 0.019638842044974434 -0.006201190086155448 -0.04387935758388012 4.740219690451833 0.011559034512917555 -0.026232784173992114 -0.02213770613483676 0.0006863846599687025 -0.00012190700929581712 -0.0332101786903445 -0.047564027748800676 0.0008457921222506511 -5.598941419492878 -0.010097410116378517 0.0410140638529193 -6.715357322500755 -0.009414594915726278 -0.0494564388668511 -6.7177071537748665 0.047975058791513085 0.010316705255920173 -0.009310107493015298 0.0051152837534328265 -0.024551680991373007 7.998221004812304 3.4548739162888924 -19.21763672047182 0.03468149424961968 10.43458875342024 0.061230421512454045 -5.582017739139057 -15.648773076517221 3.145437103229637 0.01765505711513857 -0.004854204225962885 0.010415901262999272 -0.02368530543977706 4.679933110471536 -0.01730734153020221 12.483046635315512 -8.218124129076092 6.901312836921663 0.036168334436962754 46.40396442050883 0.02667023092529675 -4.339275199809824 -14.761753757525534 -3.7974616575515676 0.031110425972294648 0.005806754223663625 -0.0020816527169730268 0.010859416674491482 -10.757879559457837 0.044838239053920474 
0.01361107770616177 0.020520988380912323 -0.032397006898883036 -0.012916009779343735 0.017270789917503176 0.03317461935529698 2.93981857060269 3.861604010583273 -1.8467203607896856 -0.8333167938458642 3.467935073842109 0.34978080975642384 -0.6622886472604984 -0.6908940872713751 -0.25681829499825953 -0.2100608797194568 -0.03554571318304107 -0.5229979203552356 -0.22225779733800108 11.34823230295823 -0.6478634513217927 0.2565993565551884 -0.5914549852943265 -1.3834524756722224 0.47611603325994617 -16.47196298680298 -0.12126135484851705 -6.537757695785917 2.6960482391044516 -15.872462433128812 77.403655430187 5.630256997740544 4.932747225562796 12.221004682395678 4.817494515230487 89.7434709393011 6.319933697707996 -0.13803081439611062 -1.5494347205417334 4.507293444789659 -0.11833703715062306 -1.5610641860305594 -0.009946549374610736 -0.034957150255996015 -56.25162941234869 0.014088426020849873 -0.03861068096257296 -56.247040629874185 -38.729139627156755 -0.03332123554477664 0.005895097036929733 0.008674046423761815 -0.0335149206553872 0.006398171962537904 -0.023761568521287878 -0.009326306175860728 0.007796229138221348 -36.685683394728166 -0.03128479543853749 0.007195343498447563 0.0066180314401783355 0.04297475948554912 -0.03728968482492726 0.031995517165916344 0.012031781522396078 -0.04289346705429688 -19.789343275849482 0.0006217057515038773 9.583182529878611e-05 -0.043139131501275976 0.03738136422942821 -0.029394020697207552 0.014056260528964285 -0.031419780176846344 -0.024869777679986913 24.075717929820115 0.004216943094410788 0.045639820398035894 28.875914016142158 0.025878661798729358 -0.0089226522457841 28.855079351330087 -0.016787060502362106 0.03710488414869507 7.839513316003315 2.0293473109561466 12.947761690540624 -72.33955401523461 26.126542907948163 -14.83758679231446 -30.388957464869943 6.418209493806188 -87.68584586481957 -14.036552466619643 -8.261469157233611 5.076743673010602 -0.4465639941230663 0.11419533738848521 -8.139762913645667 -0.04490750580299782 -0.02063378595387143 44.56618924350543 -0.0019857048454174067 0.0008390887595589601 44.52247150860174 12.492967949527493 -0.02616768436224908 -0.03139450097718211 -0.008995513890721115 0.04635757769988958 -0.04687861431578738 0.01201872113196025 0.001564821670250362 -0.021314866215071112 11.107516528913601 0.010861268720143443 0.006088545984321405 -0.016030858548021158 0.011343452483766139 0.04055187435555721 -0.02102646042368449 -0.02937389641839035 -0.01609692186847169 4.73280715245144 0.026140575616448537 0.019220564795656793 -0.02472356387081485 -0.03158811626638993 -0.016975718010487126 0.03957025671587354 0.00816803590158135 -0.009954490505018171 -5.568926933804939 0.036876688730237125 -0.001452532567089231 -6.744568367225002 0.040656721161856396 -0.015794885818400613 -6.6875590384268335 -0.03811554638444432 -0.019081175632389716 0.013968408941752565 0.020982785726127988 -0.013672872200099903 8.06810215670453 3.5065836064079643 -19.21269416175044 0.01818554233002954 10.394329387058168 -0.005488994467116783 -5.573596777848116 -15.669999280271787 3.174913056531999 0.04657113522008686 -0.018245908766822874 -0.039344253813931744 -0.03237734439402384 4.6605513615702545 0.0017413273832785176 12.43681438417466 -8.248574006063794 6.902037230467872 -0.016145954449201957 46.40772912859296 -0.004735220191797213 -4.331599550239961 -14.701441829846472 -3.7919809519956735 0.01906624773238282 -0.024551791424462732 0.029729041954560987 0.005242662735163514 -10.770815239046524 -0.0043471968027763925 
